# xmcd CD database file
#
# Track frame offsets:
#	150
#	25056
#	60571
#	104655
#	133757
#	169837
#	226737
#	263297
#
# Disc length: 4354 seconds
#
# Revision: 0
# Processed by: cddbd v1.5.2PL0 Copyright (c) Steve Scherf et al.
# Submitted via: CDex 1.70beta2
#
DISCID=5f110008
DTITLE=Miles Davis - The Best Of Miles Davis (disk 2)
DYEAR=1900
DGENRE=Jazz
TTITLE0=E.S.P.
TTITLE1=Nefertiti
TTITLE2=Footprints
TTITLE3=Prince Of Darkness
TTITLE4=Sweet Pea
TTITLE5=Paraphernalia
TTITLE6=Petits Machins
TTITLE7=Miles Runs The Voodoo Down
EXTD=
EXTT0=
EXTT1=
EXTT2=
EXTT3=
EXTT4=
EXTT5=
EXTT6=
EXTT7=
PLAYORDER=
